<svg xmlns="http://www.w3.org/2000/svg" xmlns:xlink="http://www.w3.org/1999/xlink" version="1.1" xml:space="preserve" viewBox="0 0 1080 1080">
<desc>Created with Fabric.js 5.2.4</desc>
<defs>
</defs>
<rect x="0" y="0" width="100%" height="100%" fill="transparent"/>
<g transform="matrix(1 0 0 1 540 540)" id="f776a32e-73b6-4168-8a4a-ac542cecf362">
<rect style="stroke: none; stroke-width: 1; stroke-dasharray: none; stroke-linecap: butt; stroke-dashoffset: 0; stroke-linejoin: miter; stroke-miterlimit: 4; fill: rgb(255,255,255); fill-rule: nonzero; opacity: 1; visibility: hidden;" vector-effect="non-scaling-stroke" x="-540" y="-540" rx="0" ry="0" width="1080" height="1080"/>
</g>
<g transform="matrix(1 0 0 1 540 540)" id="7dc474e1-ac0c-437c-890b-e2de98b78d18">
</g>
<g transform="matrix(1 0 0 1 540 540)" id="9c8e96c8-611a-46bd-b53d-eb4794c9672d">
<path style="stroke: rgb(0,0,0); stroke-width: 0; stroke-dasharray: none; stroke-linecap: butt; stroke-dashoffset: 0; stroke-linejoin: miter; stroke-miterlimit: 4; fill: rgb(94,66,166); fill-rule: nonzero; opacity: 1;" vector-effect="non-scaling-stroke" transform=" translate(-61.34, -61.43)" d="M 35.84 113.9 C 35.78 112.34 35.550000000000004 110.78 35.18000000000001 109.25 C 33.690000000000005 103.22 29.910000000000007 97.71000000000001 25.250000000000007 93.71000000000001 C 25.070000000000007 93.55000000000001 24.890000000000008 93.4 24.700000000000006 93.25000000000001 L 20.500000000000007 97.35000000000001 C 23.74000000000001 99.83000000000001 26.080000000000005 103.23 27.040000000000006 106.4 C 27.560000000000006 108.12 27.710000000000008 109.81 27.420000000000005 111.33000000000001 C 27.090000000000007 113.07000000000001 26.230000000000004 114.56000000000002 24.760000000000005 115.64000000000001 C 24.430000000000007 115.88000000000001 24.080000000000005 116.09000000000002 23.700000000000006 116.28000000000002 C 25.580000000000005 117.21000000000002 27.350000000000005 117.79000000000002 28.880000000000006 117.91000000000001 C 30.420000000000005 118.04 31.770000000000007 117.76 32.910000000000004 117.07000000000001 C 34 116.41 34.97 115.36 35.84 113.9 L 35.84 113.9 z M 78.92 71.24 C 78.52 71.03 78.2 70.72999999999999 77.97 70.36999999999999 L 77.17999999999999 71.14999999999999 C 77.47 71.33999999999999 77.72 71.58999999999999 77.91 71.88999999999999 C 81.99 78.32999999999998 84.34 84.87999999999998 84.56 91.55999999999999 C 84.78 98.26999999999998 82.85000000000001 105.00999999999999 78.37 111.80999999999999 C 77.62 112.94999999999999 76.10000000000001 113.25999999999999 74.96000000000001 112.50999999999999 C 73.82000000000001 111.75999999999999 73.51 110.24 74.26 109.1 C 78.15 103.19999999999999 79.83000000000001 97.41 79.64 91.71 C 79.45 85.97999999999999 77.37 80.25999999999999 73.75 74.53999999999999 L 67.48 80.72 C 67.42 80.53 67.36 80.35 67.3 80.16 L 66.82 80.63 L 40.42999999999999 115.82 C 39.07999999999999 118.28999999999999 37.419999999999995 120.1 35.459999999999994 121.27999999999999 C 33.38999999999999 122.51999999999998 31.069999999999993 123.02999999999999 28.509999999999994 122.82 C 24.599999999999994 122.5 19.649999999999995 120.05999999999999 15.009999999999994 116.50999999999999 C 14.859999999999994 116.41999999999999 14.709999999999994 116.30999999999999 14.589999999999995 116.17999999999999 C 12.989999999999995 114.92999999999999 11.439999999999994 113.55999999999999 9.979999999999993 112.1 C 6.669999999999993 108.78999999999999 3.7999999999999936 104.99 2.0199999999999934 101.21 C 0.09999999999999343 97.13999999999999 -0.5900000000000065 93.03 0.6699999999999933 89.38 C 1.4799999999999933 87.03999999999999 3.0599999999999934 84.96 5.579999999999993 83.3 L 42.56999999999999 55.15 L 62.58 33.76 L 86.1 1.36 C 86.5 0.81 87.08 0.4800000000000001 87.69999999999999 0.3700000000000001 C 91.13999999999999 -0.2899999999999999 94.63999999999999 -0.03999999999999987 98.03999999999999 0.9000000000000001 C 103.88 2.5100000000000002 109.41 6.17 113.72 10.780000000000001 C 118.03999999999999 15.400000000000002 121.17999999999999 21.020000000000003 122.25 26.520000000000003 C 122.83 29.500000000000004 122.8 32.46 122.03 35.24 C 121.88 35.800000000000004 121.54 36.27 121.1 36.59 L 121.1 36.6 L 85.7 62.21 L 84.28 63.6 C 84.28 63.79 84.27 63.980000000000004 84.26 64.17 L 81.41000000000001 66.98 C 86.63000000000001 69.71000000000001 90.86000000000001 73.14 93.95000000000002 77.39 C 97.11000000000001 81.74 99.06000000000002 86.89 99.61000000000001 92.95 C 99.73000000000002 94.3 98.73000000000002 95.5 97.38000000000001 95.62 C 96.03000000000002 95.74000000000001 94.83000000000001 94.74000000000001 94.71000000000001 93.39 C 94.24000000000001 88.25 92.62 83.91 89.98 80.28 C 87.31 76.63 83.58 73.64 78.92 71.24 L 78.92 71.24 z M 20.57 90.39 C 17.21 88.45 13.690000000000001 87.34 10.43 87.36 C 9.6 87.37 8.78 87.45 7.9799999999999995 87.62 C 6.59 88.6 5.73 89.75 5.29 91 C 4.49 93.31 5.04 96.16 6.4399999999999995 99.12 C 7.97 102.38000000000001 10.5 105.69 13.44 108.64 C 14.67 109.87 15.969999999999999 111.04 17.29 112.09 C 19.56 112.47 21.03 112.25 21.84 111.65 C 22.23 111.36 22.47 110.93 22.57 110.41000000000001 C 22.71 109.67000000000002 22.62 108.78000000000002 22.32 107.82000000000001 C 21.44 104.91000000000001 18.9 101.72000000000001 15.43 99.93 C 14.219999999999999 99.31 13.74 97.83000000000001 14.36 96.62 C 14.49 96.37 14.649999999999999 96.16000000000001 14.84 95.98 L 20.57 90.39 L 20.57 90.39 z M 65.02 75.5 C 61.099999999999994 69.06 53.959999999999994 62.18 47.03999999999999 57.54 L 46.07999999999999 58.57 C 45.959999999999994 58.72 45.80999999999999 58.86 45.64999999999999 58.99 L 14.34999999999999 82.81 C 18.24999999999999 83.55 22.22999999999999 85.36 25.86999999999999 87.95 L 25.95999999999999 88.02 L 25.96999999999999 88.03 C 26.80999999999999 88.63 27.629999999999992 89.28 28.429999999999993 89.96000000000001 C 33.81999999999999 94.58000000000001 38.19999999999999 100.99000000000001 39.93999999999999 108.06 L 39.96999999999999 108.18 L 62.88999999999999 77.62 C 62.98 77.48 63.089999999999996 77.35000000000001 63.21999999999999 77.23 L 65.02 75.5 L 65.02 75.5 z M 64.12 39.29 C 73.03 43.7 80.46000000000001 50.85 83.17 57.95 L 117.47 33.13 C 117.82 31.340000000000003 117.78 29.42 117.4 27.450000000000003 C 116.51 22.870000000000005 113.82000000000001 18.110000000000003 110.11 14.140000000000002 C 106.38 10.150000000000002 101.67 7.000000000000003 96.75 5.650000000000002 C 94.35 4.990000000000002 91.91 4.7600000000000025 89.5 5.080000000000002 L 66.49 36.74 L 66.47999999999999 36.730000000000004 C 66.41999999999999 36.81 66.35999999999999 36.89 66.27999999999999 36.970000000000006 L 64.12 39.29 L 64.12 39.29 z" stroke-linecap="round"/>
</g>
</svg>